# AST/ASF file generated using VICON BodyLanguage
# -----------------------------------------------
:version 1.10
:name VICON
:units
  mass 1.0
  length 0.45
  angle deg
:documentation
   .ast/.asf automatically generated from VICON data using
   VICON BodyBuilder and BodyLanguage model FoxedUp or BRILLIANT.MOD
:root
   order TX TY TZ RX RY RZ
   axis XYZ
   position 0 0 0  
   orientation 0 0 0 
:bonedata
  begin
     id 1 
     name lhipjoint
     direction 0.535335 -0.74333 0.401095 
     length 2.04549 
     axis 0 0 0  XYZ
  end
  begin
     id 2 
     name lfemur
     direction 0.34202 -0.939693 0  
     length 6.95643  
     axis 0 0 20  XYZ
    dof rx ry rz
    limits (-160.0 20.0)
           (-70.0 70.0)
           (-60.0 70.0)
  end
  begin
     id 3 
     name ltibia
     direction 0.34192 -0.939729 0   
     length 5.55969   
     axis 0 0 20   XYZ
    dof rx
    limits (-10.0 170.0)
  end
  begin
     id 4 
     name lfoot
     direction 0.216943 -0.596046 0.773088   
     length 2.27918   
     axis -90 7.62852e-016 20   XYZ
    dof rx rz
    limits (-45.0 90.0)
           (-70.0 20.0)
  end
  begin
     id 5 
     name ltoes
     direction 1.53519e-011 -4.21748e-011 1   
     length 1.05562   
     axis -90 7.62852e-016 20   XYZ
    dof rx
    limits (-90.0 20.0)
  end
  begin
     id 6 
     name rhipjoint
     direction -0.576368 -0.719173 0.38806   
     length 2.1142  
     axis 0 0 0  XYZ 
  end
  begin
     id 7 
     name rfemur
     direction -0.34202 -0.939693 0   
     length 7.07928   
     axis 0 0 -20   XYZ
    dof rx ry rz
    limits (-160.0 20.0)
           (-70.0 70.0)
           (-70.0 60.0)
  end
  begin
     id 8 
     name rtibia
     direction -0.34202 -0.939693 0   
     length 5.79974   
     axis 0 0 -20   XYZ
    dof rx
    limits (-10.0 170.0)
 end
 begin
     id 9 
     name rfoot
     direction -0.189288 -0.520065 0.832888   
     length 2.42173  
     axis -90 -7.62852e-016 -20   XYZ
    dof rx rz
    limits (-45.0 90.0)
           (-20.0 70.0)
  end
  begin
     id 10 
     name rtoes
     direction -1.53574e-011 -4.21658e-011 1   
     length 1.14469   
     axis -90 -7.62852e-016 -20   XYZ
    dof rx
    limits (-90.0 20.0)
  end
  begin
     id 11 
     name lowerback
     direction -0.00135702 0.993803 0.111144   
     length 1.91308   
     axis 0 0 0   XYZ
    dof rx ry rz
    limits (-20.0 45.0)
           (-30.0 30.0)
           (-30.0 30.0)
  end
  begin
     id 12 
     name upperback
     direction -0.0056745 0.999813 0.0184631   
     length 1.9212   
     axis 0 0 0   XYZ
    dof rx ry rz
    limits (-20.0 45.0)
           (-30.0 30.0)
           (-30.0 30.0)
  end
  begin
     id 13 
     name thorax
     direction -0.00733434 0.999426 -0.0330788   
     length 1.94196   
     axis 0 0 0   XYZ
    dof rx ry rz
    limits (-20.0 45.0)
           (-30.0 30.0)
           (-30.0 30.0)
  end
  begin
     id 14 
     name lowerneck
     direction 0.0563074 0.996944 -0.0541571   
     length 2.34257   
     axis 0 0 0   XYZ
    dof rx ry rz
    limits (-20.0 45.0)
           (-30.0 30.0)
           (-30.0 30.0)
  end
  begin
     id 15 
     name upperneck
     direction -0.0544519 0.976166 -0.210085   
     length 2.32506   
     axis 0 0 0   XYZ
    dof rx ry rz
    limits (-20.0 45.0)
           (-30.0 30.0)
           (-30.0 30.0)
  end
  begin
     id 16
     name head
     direction -0.0226035 0.997615 -0.0652205  
     length 2.3648  
     axis 0 0 0   XYZ
    dof rx ry rz
    limits (-20.0 45.0)
           (-30.0 30.0)
           (-30.0 30.0)
  end
  begin
     id 17 
     name lclavicle
     direction 0.92109 0.381297 -0.0787716  
     length 4.0487  
     axis 0 0 0   XYZ
    dof ry rz
    limits (-20.0 10.0)
           (0.0 20.0)
  end
  begin
     id 18 
     name lhumerus
     direction 1 -4.48986e-011 3.56724e-027   
     length 4.94991   
     axis 180 -30 -90   XYZ
    dof rx ry rz
    limits (-60.0 90.0)
           (-90.0 90.0)
           (-90.0 90.0)
  end
  begin
     id 19
     name lradius
     direction 1 -4.48981e-011 8.62147e-027   
     length 2.7606   
     axis 180 -30 -90   XYZ
    dof rx
    limits (-10.0 170.0)
  end
  begin
     id 20
     name lwrist
     direction 1 -4.48989e-011 1.59799e-026   
     length 1.3803   
     axis -1.17785e-014 90 90   XYZ
    dof ry
    limits (-180.0 0.0)
 end
  begin
     id 21 
     name lhand
     direction 1 -4.48896e-011 3.19599e-026   
     length 0.843936   
     axis -2.03931e-014 90 90   XYZ
    dof rx rz
    limits (-90.0 90.0)
           (-45.0 45.0)
  end
  begin
     id 22 
     name lfingers
     direction 1 -4.48887e-011 6.39197e-026   
     length 0.680403   
     axis -4.07862e-014 90 90   XYZ
    dof rx
    limits (0.0 90.0)
  end
  begin
     id 23
     name lthumb
     direction 0.707107 -6.348e-011 0.707107   
     length 0.976926   
     axis -90 45 2.85299e-015   XYZ
    dof rx rz
    limits (-45.0 45.0)
           (-45.0 45.0)
  end
  begin
     id 24 
     name rclavicle
     direction -0.951104 0.307692 -0.026953   
     length 4.21801  
     axis 0 0 0   XYZ 
    dof ry rz
    limits (-10.0 20.0)
           (-20.0 0.0)
  end
  begin
     id 25 
     name rhumerus
     direction -1 -4.4896e-011 -1.8171e-018  
     length 4.32982   
     axis 180 30 90   XYZ
    dof rx ry rz
    limits (-90.0 60.0)
           (-90.0 90.0)
           (-90.0 90.0)
  end
  begin
     id 26 
     name rradius
     direction -1 -4.48959e-011 8.25165e-027   
     length 3.20057   
     axis 180 30 90   XYZ
    dof rx
    limits (-10.0 170.0)
  end
  begin
     id 27 
     name rwrist
     direction -1 -4.48997e-011 1.59799e-026   
     length 1.60029   
     axis -1.17785e-014 -90 -90   XYZ
    dof ry
    limits (-180.0 0.0)
  end
  begin
     id 28
     name rhand
     direction -1 -4.49023e-011 3.19599e-026   
     length 0.960433   
     axis -2.03931e-014 -90 -90   XYZ
    dof rx rz
    limits (-90.0 90.0)
           (-45.0 45.0)
  end
  begin
     id 29
     name rfingers
     direction -1 -4.48802e-011 6.39197e-026   
     length 0.774326   
     axis -4.07862e-014 -90 -90   XYZ
    dof rx
    limits (0.0 90.0)
  end
  begin
     id 30
     name rthumb
     direction -0.707107 -6.34876e-011 0.707107   
     length 1.11178   
     axis -90 -45 -2.85299e-015   XYZ
    dof rx rz
    limits (-45.0 45.0)
           (-45.0 45.0)
  end
:hierarchy
  begin
    root lhipjoint rhipjoint lowerback
    lhipjoint lfemur
    lfemur ltibia
    ltibia lfoot
    lfoot ltoes
    rhipjoint rfemur
    rfemur rtibia
    rtibia rfoot
    rfoot rtoes
    lowerback upperback
    upperback thorax
    thorax lowerneck lclavicle rclavicle
    lowerneck upperneck
    upperneck head
    lclavicle lhumerus
    lhumerus lradius
    lradius lwrist
    lwrist lhand lthumb
    lhand lfingers
    rclavicle rhumerus
    rhumerus rradius
    rradius rwrist
    rwrist rhand rthumb
    rhand rfingers
end

#!OML:ASF C:\KaitlinTest1\Natural Motions\Nikki\Session 2\Nikki.ASF
:FULLY-SPECIFIED
:DEGREES
47
root -18.9186 16.6331 5.04275 -155.951 85.3521 -165.75
lowerback -13.2366 -1.70688 0.307215
upperback -3.95059 -2.10876 -0.330175
thorax 3.23886 -0.970998 -0.844608
lowerneck -1.87043 1.66508 8.32525
upperneck 27.1896 3.92084 -5.46967
head 9.04729 2.56812 -2.93181
rclavicle -2.21148e-015 2.78299e-015
rhumerus -41.8459 -22.4849 -78.8028
rradius 17.9747
rwrist 29.1649
rhand -35.9337 2.90023
rfingers 7.12502
rthumb -9.04584 -26.8858
lclavicle -2.21148e-015 2.78299e-015
lhumerus -41.94 16.0635 80.608
lradius 23.9096
lwrist -40.5973
lhand -32.8073 3.36401
lfingers 7.12502
lthumb -6.02816 33.2582
rfemur -7.57355 -16.5575 21.0047
rtibia 10.9613
rfoot -10.4397 11.3355
rtoes 6.52014e-014
lfemur -10.1262 11.8032 -17.8846
ltibia 9.93933
lfoot -2.03737 -16.9886
ltoes 4.92986e-014
48
root -18.9153 16.6329 5.04105 -155.675 85.3616 -165.461
lowerback -13.2414 -1.68499 0.345523
upperback -3.94599 -2.08404 -0.351948
thorax 3.24436 -0.958769 -0.885222
lowerneck -1.89042 1.64505 8.40361
upperneck 27.2218 3.89851 -5.52221
head 9.06299 2.56117 -2.96573
rclavicle -1.54555e-014 -8.74653e-015
rhumerus -41.9116 -22.5935 -78.7594
rradius 18.0041
rwrist 29.2798
rhand -35.9166 2.9406
rfingers 7.12502
rthumb -9.02937 -26.8461
lclavicle -1.54555e-014 -8.74653e-015
lhumerus -41.9624 16.0206 80.5739
lradius 23.9445
lwrist -40.6321
lhand -32.7378 3.33611
lfingers 7.12502
lthumb -5.96104 33.2323
rfemur -7.52349 -16.5352 21.007
rtibia 10.9257
rfoot -10.4616 11.3273
rtoes -4.77083e-015
lfemur -10.0935 11.817 -17.8698
ltibia 9.94937
lfoot -2.08485 -16.9761
ltoes 3.18055e-015
49
root -18.9133 16.6331 5.04084 -156.01 85.3921 -165.811
lowerback -13.2603 -1.68988 0.298981
upperback -3.95034 -2.08382 -0.355563
thorax 3.25167 -0.958487 -0.863257
lowerneck -1.85602 1.64804 8.37029
upperneck 27.1917 3.90279 -5.50482
head 9.04529 2.56143 -2.95358
rclavicle -2.41523e-014 -6.75868e-015
rhumerus -41.9285 -22.6423 -78.6994
rradius 17.9667
rwrist 29.3579
rhand -35.9167 2.98004
rfingers 7.12502
rthumb -9.02947 -26.8067
lclavicle -2.41523e-014 -6.75868e-015
lhumerus -41.99 16.0589 80.5456
lradius 23.9675
lwrist -40.7236
lhand -32.6873 3.37055
lfingers 7.12502
lthumb -5.91234 33.2681
rfemur -7.51361 -16.5042 20.9668
rtibia 10.8891
rfoot -10.4539 11.3096
rtoes -7.31528e-014
lfemur -10.1073 11.83 -17.916
ltibia 9.9673
lfoot -2.08092 -16.9705
ltoes 0
50
root -18.9078 16.6313 5.03917 -155.533 85.4429 -165.295
lowerback -13.2332 -1.66374 0.341563
upperback -3.96572 -2.05422 -0.36175
thorax 3.21955 -0.943873 -0.887908
lowerneck -1.82573 1.63961 8.37832
upperneck 27.2271 3.89744 -5.50086
head 9.0519 2.56265 -2.95459
rclavicle 1.42131e-014 3.97569e-016
rhumerus -42.0286 -22.6804 -78.6493
rradius 17.9737
rwrist 29.4092
rhand -35.9198 3.0704
rfingers 7.12502
rthumb -9.03237 -26.7162
lclavicle 1.42131e-014 3.97569e-016
lhumerus -42.0232 15.9033 80.6401
lradius 24.024
lwrist -40.2597
lhand -32.5037 3.49072
lfingers 7.12502
lthumb -5.73501 33.3931
rfemur -7.44608 -16.4813 20.9637
rtibia 10.862
rfoot -10.4346 11.3553
rtoes 3.97569e-015
lfemur -10.0267 11.888 -17.8953
ltibia 9.96686
lfoot -2.16684 -16.9592
ltoes -1.43125e-014
51
root -18.9071 16.6303 5.0396 -155.453 85.4293 -165.204
lowerback -13.2184 -1.67632 0.331247
upperback -3.96661 -2.07021 -0.348561
thorax 3.21121 -0.951899 -0.870389
lowerneck -1.81726 1.66588 8.37437
upperneck 27.2469 3.93944 -5.50177
head 9.06071 2.58299 -2.95082
rclavicle 8.99501e-015 1.98785e-015
rhumerus -42.0357 -22.6238 -78.6679
rradius 17.9883
rwrist 29.4112
rhand -35.8943 3.04794
rfingers 7.12502
rthumb -9.0078 -26.7397
lclavicle 8.99501e-015 1.98785e-015
lhumerus -41.9262 14.991 81.2022
lradius 24.0218
lwrist -39.3643
lhand -32.6247 3.69391
lfingers 7.12502
lthumb -5.85191 33.5931
rfemur -7.42222 -16.3511 20.9789
rtibia 10.8526
rfoot -10.4281 11.2121
rtoes 1.51076e-014
lfemur -10.0148 11.8767 -17.8732
ltibia 9.95378
lfoot -2.12121 -16.9794
ltoes 5.88403e-014
52
root -18.9075 16.6318 5.03958 -155.645 85.4062 -165.457
lowerback -13.2233 -1.69262 0.303377
upperback -4.00208 -2.08631 -0.345889
thorax 3.17765 -0.959353 -0.853874
lowerneck -1.78374 1.64177 8.33464
upperneck 27.2266 3.91011 -5.49774
head 9.04384 2.566 -2.94522
rclavicle 8.89561e-015 5.1684e-015
rhumerus -42.0545 -22.6069 -78.661
rradius 17.9913
rwrist 29.4504
rhand -35.8832 3.03545
rfingers 7.12502
rthumb -8.99714 -26.7527
lclavicle 8.89561e-015 5.1684e-015
lhumerus -42.0863 16.0606 80.5043
lradius 23.9578
lwrist -40.7982
lhand -32.6188 3.47998
lfingers 7.12502
lthumb -5.84621 33.3793
rfemur -7.47192 -16.3673 20.9855
rtibia 10.8267
rfoot -10.3816 11.1991
rtoes -2.06736e-014
lfemur -10.085 11.8467 -17.8939
ltibia 9.96228
lfoot -2.13097 -16.9647
ltoes -1.27222e-014
53
root -18.9055 16.6314 5.03929 -155.64 85.406 -165.443
lowerback -13.2214 -1.6846 0.30639
upperback -3.99616 -2.07576 -0.360271
thorax 3.18233 -0.954227 -0.86897
lowerneck -1.81707 1.63491 8.39352
upperneck 27.2698 3.90808 -5.54883
head 9.0671 2.5668 -2.9735
rclavicle -1.10822e-014 1.19271e-015
rhumerus -42.0914 -22.7776 -78.5855
rradius 17.9692
rwrist 29.5881
rhand -35.859 3.01368
rfingers 7.12502
rthumb -8.97377 -26.7755
lclavicle -1.10822e-014 1.19271e-015
lhumerus -42.0813 16.0604 80.481
lradius 23.9667
lwrist -40.8698
lhand -32.4957 3.49594
lfingers 7.12502
lthumb -5.7273 33.3985
rfemur -7.43525 -16.3202 20.9806
rtibia 10.802
rfoot -10.398 11.1524
rtoes -1.82882e-014
lfemur -10.0692 11.8442 -17.8884
ltibia 9.96774
lfoot -2.15175 -16.9491
ltoes 1.11319e-014
54
root -18.9041 16.6316 5.03849 -155.352 85.4079 -165.169
lowerback -13.2404 -1.69733 0.327476
upperback -3.99689 -2.09573 -0.346962
thorax 3.19123 -0.963955 -0.870648
lowerneck -1.78903 1.65533 8.37048
upperneck 27.247 3.94171 -5.55414
head 9.05606 2.57968 -2.96854
rclavicle -9.69075e-015 -1.59028e-015
rhumerus -42.1198 -22.7839 -78.5262
rradius 17.9679
rwrist 29.8315
rhand -35.834 3.07346
rfingers 7.12502
rthumb -8.9496 -26.7167
lclavicle -9.69075e-015 -1.59028e-015
lhumerus -41.9788 15.1206 81.0815
lradius 23.9942
lwrist -39.7346
lhand -32.6106 3.73303
lfingers 7.12502
lthumb -5.83827 33.6326
rfemur -7.44223 -16.3158 21.0029
rtibia 10.7866
rfoot -10.3958 11.1632
rtoes -5.725e-014
lfemur -10.0784 11.8524 -17.8729
ltibia 9.96993
lfoot -2.1593 -16.9504
ltoes -4.77083e-015
